<?xml version="1.0" encoding="UTF-8"?>
<!DOCTYPE svg PUBLIC "-//W3C//DTD SVG 1.1//EN" "http://www.w3.org/Graphics/SVG/1.1/DTD/svg11.dtd">
<!-- Creator: CorelDRAW (Evaluation Version) -->
<svg xmlns="http://www.w3.org/2000/svg" xml:space="preserve" version="1.1" style="shape-rendering:geometricPrecision; text-rendering:geometricPrecision; image-rendering:optimizeQuality; fill-rule:evenodd; clip-rule:evenodd"
viewBox="450 4100 7500 2300"
 xmlns:xlink="http://www.w3.org/1999/xlink"
 xmlns:xodm="http://www.corel.com/coreldraw/odm/2003">
 <defs>
  <style type="text/css">
   <![CDATA[
    .str0 {stroke:#175A68;stroke-width:3;stroke-miterlimit:2.61313}
    .fil1 {fill:#175A68;fill-rule:nonzero}
    .fil0 {fill:#6B8233;fill-rule:nonzero}
    .fil2 {fill:#F9FAF5;fill-rule:nonzero}
   ]]>
  </style>
 </defs>
 <g id="Layer_x0020_1">
  <metadata id="CorelCorpID_0Corel-Layer"/>
  <path id="_2" class="fil0" d="M4026.12 4626.04c3.81,23.23 1.89,128.94 -2.87,158.63 -28.89,180.07 -137.68,329.98 -296.89,409.13 -77.05,38.31 -148.39,55.47 -244.69,58.87 -152.44,5.38 -285.5,-38.16 -402.69,-131.76 -56.48,-45.11 -173.92,-169.83 -168.63,-179.08 4.91,-8.58 140.32,-170.65 142.59,-170.65 1.23,0 25.54,25.87 54,57.48 99.72,110.75 152.97,153.5 227.91,182.98 46.86,18.43 81.81,23.94 138.22,21.79 52.46,-2 78.28,-7.61 121.92,-26.47 37.57,-16.25 62.98,-33.86 94.23,-65.35 44.71,-45.04 73.66,-95.26 89.97,-156.05 10.65,-39.67 12.39,-116.98 3.6,-159.53 -13.64,-66 -44.48,-124.99 -88.34,-168.98 -59.14,-59.31 -118.8,-88.04 -203.14,-97.85 -78,-9.07 -155.64,11.05 -230.31,59.65 -62.61,40.76 -164.82,150.61 -370.18,397.88 -208.54,251.09 -289.96,328.24 -402.38,381.24 -77.91,36.74 -141.37,51.37 -236.97,54.65 -109.67,3.76 -215.52,-19.82 -303.03,-67.53 -132.29,-72.11 -235.76,-202.22 -270.96,-340.73 -42.41,-166.84 -11.28,-344.53 82.43,-470.44 30.07,-40.41 93.24,-102.6 132.12,-130.07 39.15,-27.66 101.73,-58.96 146.17,-73.11 18.2,-5.8 54.66,-14.36 81,-19.03 190.21,-33.71 366.77,12.83 506.89,133.62 36.47,31.44 84.06,80.07 124.82,127.55 28.39,33.07 29.7,35.28 25.13,42.44 -10.1,15.83 -139.75,163.98 -143.5,163.98 -2.17,0 -11.34,-8.72 -20.39,-19.37 -33.78,-39.8 -107.65,-118.11 -132.47,-140.44 -27.43,-24.68 -68.46,-53.18 -97.48,-67.7 -49.7,-24.88 -118.61,-38.5 -172.93,-34.17 -86.92,6.92 -147.44,34.74 -209.56,96.31 -54.36,53.89 -80.19,102.04 -94.21,175.63 -13.25,69.51 -6.16,136.24 21.72,204.64 30.62,75.1 98.29,143.16 174.13,175.15 44.29,18.68 72.07,23.44 134.93,23.09 64.44,-0.35 90.41,-5.73 138.37,-28.66 93.24,-44.58 157.21,-109.24 410.35,-414.84 135.71,-163.82 242.22,-276.48 307.35,-325.09 79.46,-59.3 164.83,-96.7 261.04,-114.39 55.8,-10.26 153.83,-10.23 211.15,0.05 100.44,18.02 176.25,51.03 255.13,111.09 64.54,49.14 121,118.85 154.96,191.33 23.92,51.04 40.47,107.05 51.46,174.11z"/>
  <path id="_27" class="fil1" d="M5348.19 4631.1c17,-166.81 101.09,-311.41 231.8,-398.6 86.41,-57.65 174.55,-84.61 287.81,-88.06 66.37,-2.02 106.36,1.96 163,16.2 104.78,26.35 216.03,105.64 276.65,197.17 67.6,102.07 102.21,234.44 95.72,366.09 -1.14,23.2 -2.09,44.09 -2.11,46.41 -0.02,3.35 -83.25,4.22 -404.83,4.22 -264.18,0 -405.52,1.16 -406.87,3.35 -3.3,5.34 11.27,53.17 25.55,83.87 39.76,85.46 112.09,144.3 208.66,169.76 37.46,9.87 116.81,12.31 160.16,4.93 81.55,-13.9 145.3,-44.66 198.56,-95.8 12.41,-11.92 24,-21.14 25.75,-20.48 5.65,2.13 135.5,139.44 135.56,143.35 0.03,2.08 -14.75,18.45 -32.85,36.37 -70.87,70.19 -149.11,112.65 -248.91,135.09 -52.99,11.92 -88.89,15.66 -151.21,15.78 -82.55,0.15 -148.44,-10.38 -218.35,-34.92 -178.8,-62.75 -309.51,-224.36 -339.17,-419.39 -6.49,-42.65 -8.97,-125.78 -4.94,-165.34zm814.4 -57.37c-21.22,-90.2 -79.39,-165.07 -155.48,-200.15 -78.53,-36.2 -183.74,-34.75 -259.11,3.55 -59.34,30.16 -109.73,85.11 -136.07,148.39 -11.81,28.38 -22.43,67.95 -19.95,74.4 1.37,3.59 55.06,4.39 286.42,4.3 94.91,-0.04 189.82,-0.07 284.73,-0.11 0.18,-3.94 0.35,-7.87 0.53,-11.81 0.29,-6.5 -0.19,-14.85 -1.06,-18.56z"/>
  <path id="_2_28" class="fil0" d="M1530.71 4631.1c2.89,28.5 1.35,135.37 -2.02,140.91 -0.85,1.39 -183.87,2.53 -406.72,2.53 -135.06,0 -270.12,0 -405.19,0 0.79,5.28 1.58,10.55 2.37,15.83 5.9,39.33 35.23,101.86 64.34,137.15 26.95,32.68 58.97,57.48 101.11,78.31 48.41,23.93 80.96,31.68 143.44,34.13 112.37,4.41 209.41,-29.65 284.43,-99.83 12.39,-11.59 23.92,-20.56 25.63,-19.93 5.41,2.02 135.44,139 135.47,142.72 0.02,1.96 -15.62,18.75 -34.76,37.31 -96.07,93.2 -203.35,138.76 -353.91,150.28 -82.18,6.29 -184.61,-6.06 -254.26,-30.64 -171.61,-60.57 -296.46,-196.94 -337.53,-368.66 -36.38,-152.09 -17.96,-315.26 49.21,-436.06 33.14,-59.6 76.4,-113.94 117.85,-148.07 51.66,-42.53 114.52,-77.84 171.97,-96.61 67.24,-21.97 161.57,-33.2 227.17,-27.04 77.74,7.3 133.45,22.86 194.85,54.41 160.61,82.53 256.23,232.33 276.54,433.27zm-804.92 -67.73c-4.35,16.83 -7.99,32.5 -8.08,34.82 -0.13,3.34 57.87,4.23 279.12,4.26 153.61,0.03 282.68,0.96 286.83,2.07 11.21,3.01 12.98,-6.11 6.44,-33.35 -21.98,-91.58 -81.52,-167.15 -156.19,-198.24 -45.81,-19.07 -72.4,-24.42 -122.74,-24.69 -56.96,-0.31 -91.45,7.66 -139.45,32.2 -71.11,36.36 -125.74,104.83 -145.93,182.91z"/>
  <path id="_27_29" class="fil1" d="M6452.11 4864.71c8.36,-37.13 42.98,-73.03 117.69,-122 17.63,-11.56 42.44,-26.79 55.12,-33.85 12.68,-7.06 23.62,-14.53 24.31,-16.61 0.69,-2.07 2.89,-20.93 4.89,-41.91 13.3,-139.28 64.68,-251.2 158.46,-345.26 60.28,-60.44 117.36,-96.48 202.71,-127.96 117.94,-43.5 279.64,-46.31 393.19,-6.85 117.1,40.7 207.3,105.08 273.91,195.52 7.78,10.56 15.56,21.13 23.35,31.69 26.39,0.15 52.79,0.29 79.18,0.43 64.76,0.35 83.79,1.57 104.5,6.7 98.93,24.5 119.12,85.7 50.62,153.43 -42.53,42.05 -98.19,78 -194.06,125.35 -168.31,83.13 -379.2,155.95 -614.25,212.09 -283.01,67.6 -526.71,87.42 -624.62,50.79 -41.04,-15.35 -62.68,-47.45 -55,-81.57zm221.96 -9.17c-5.54,-17.63 -11.8,-43.07 -13.9,-56.53 -2.77,-17.69 -5.22,-24.47 -8.85,-24.47 -5.61,0 -47.23,25.08 -73.09,44.05 -23.09,16.93 -44.13,37.89 -50.59,50.39 -1.8,3.47 -3.59,6.94 -5.39,10.41 3.7,1.55 7.41,3.09 11.11,4.64 6.11,2.56 23.26,6.38 38.11,8.51 31.55,4.52 110.39,3.42 111.74,-1.57 0.5,-1.85 -3.62,-17.8 -9.15,-35.44zm865.54 -207.56c-3.41,-26.25 -16.69,-73.64 -27.98,-99.88 -31.13,-72.3 -85.2,-126.93 -160.11,-161.78 -63.04,-29.32 -128.9,-36.52 -199.53,-21.81 -127.02,26.46 -226.2,129.57 -249.57,259.46 -8.08,44.92 -9.32,69.33 -5.42,106.69 4.24,40.66 12.12,73.23 25.3,104.63 14.32,34.1 11.47,33.08 63.39,22.76 53.69,-10.67 192.05,-44.29 269.24,-65.44 52.61,-14.41 204.66,-63.98 259.87,-84.72 8.44,-3.17 16.87,-6.34 25.31,-9.51 0.14,-6.71 0.28,-13.43 0.41,-20.14 0.22,-11.07 -0.19,-24.7 -0.91,-30.27zm352.35 -171.93c-7.89,-2.98 -24.98,-6.71 -37.97,-8.28 -34.88,-4.23 -105.33,-4.67 -107.8,-0.67 -1.15,1.86 3.05,18.26 9.33,36.45 6.28,18.18 14.09,44.07 17.34,57.53 3.71,15.35 7.61,24.47 10.47,24.47 11.44,0 71.73,-40.59 101.07,-68.04 27.04,-25.29 28.53,-33.52 7.56,-41.45z"/>
  <path id="_27_30" class="fil1" d="M4311.91 4160.29c38.25,0 76.51,0 114.76,0 0,21.94 0,43.87 0,65.81 0,36.2 0.78,65.81 1.74,65.81 0.96,0 12.82,-11.01 26.36,-24.46 29.44,-29.26 67.93,-57.32 107.5,-78.37 58.33,-31.03 114.11,-44.83 193.46,-47.86 44.75,-1.7 56.3,-0.93 99.56,6.71 134.72,23.8 229.36,91.77 280.85,201.73 21.5,45.91 40.54,125.87 45.69,191.83 1.38,17.73 2.52,180.13 2.52,360.91 0,109.56 0,219.11 0,328.67 -39.38,-0.01 -78.75,-0.02 -118.13,-0.03 -39.38,-0.01 -78.75,-0.02 -118.13,-0.03 -0.27,-7.74 -0.53,-15.46 -0.8,-23.2 -0.44,-12.76 -1.35,-157.61 -2.03,-321.89 -1.31,-317.52 -1.26,-316.31 -18,-374.62 -24.68,-85.96 -82.68,-135.43 -176.91,-150.89 -28.96,-4.76 -39.02,-5.02 -65.07,-1.69 -42.78,5.46 -66.89,12.28 -98.41,27.81 -76.97,37.96 -121.59,102.22 -142.53,205.28 -4.42,21.73 -5.56,74.3 -7.25,332.93 -0.67,102.37 -1.34,204.75 -2.01,307.13 -39.38,0 -78.75,0 -118.13,0 -39.37,0 -78.75,0 -118.12,0 -0.28,-178.6 -0.57,-357.19 -0.85,-535.78 -0.28,-178.59 -0.57,-357.19 -0.85,-535.78 38.25,0 76.51,0 114.76,0z"/>
  <path id="_27_31" class="fil1" d="M6788.33 4997.86c46.35,-4.35 124.85,-16.21 185.19,-27.97 12.51,-2.44 25.02,-4.87 37.54,-7.31 7.18,5.09 14.35,10.18 21.53,15.27 103.29,73.27 247.09,78.25 356.44,12.35 53.67,-32.35 102.03,-89.03 125.61,-147.23 2.94,-7.27 5.89,-14.54 8.83,-21.81 20.21,-7.61 40.43,-15.22 60.64,-22.83 66.48,-25.03 126.2,-50.78 169.91,-73.24 15.55,-8 29.45,-13.81 30.89,-12.92 2.93,1.81 1.47,27.03 -3.91,67.43 -23.72,178.33 -132.86,330.91 -295.62,413.28 -82.33,41.67 -194.86,64.52 -293.34,59.57 -151.3,-7.6 -279.07,-62.71 -379.44,-163.66 -27.7,-27.87 -67.3,-77.68 -67.3,-84.67 0,-1.22 19.37,-4.04 43.03,-6.26z"/>
  <path id="_22" class="fil1" d="M7740.24 5565.04c16.09,-0.31 32.17,-0.62 48.26,-0.94 -0.38,70.63 -0.77,141.25 -1.15,211.87 -1.1,203.07 -1.44,212.79 -8.12,233.81 -28.48,89.58 -88.7,132.74 -195.37,140.03 -37.59,2.57 -77.63,-1.48 -118.32,-11.96 -30.39,-7.83 -84.67,-33.34 -94.87,-44.59 -2.28,-2.51 -4.56,-5.03 -6.84,-7.54 6.32,-11.49 12.64,-22.98 18.96,-34.47 10.42,-18.96 20.06,-34.53 21.41,-34.59 1.35,-0.07 10.47,4.96 20.25,11.18 39.98,25.41 79.59,36.47 132.54,37.02 63.76,0.66 94.85,-14.29 116.05,-55.8 9.98,-19.54 11.64,-26.48 13.12,-54.7 0.93,-17.78 0.53,-32.32 -0.89,-32.32 -1.42,0 -8.41,5.26 -15.53,11.69 -28.4,25.66 -68.17,38.93 -116.61,38.93 -65.78,0 -109.2,-16.59 -149.81,-57.24 -41.41,-41.44 -60.64,-88.69 -60.64,-149.01 0,-39.01 4.56,-59.56 20.69,-93.36 23.17,-48.54 63.96,-85.01 116.87,-104.5 30.61,-11.28 86.56,-14.18 120.28,-6.24 28.96,6.82 58.96,22.56 75.48,39.59 6.94,7.15 13.37,13 14.3,13.01 0.93,0 1.69,-11 1.69,-24.46 0,-8.16 0,-16.31 0,-24.47 16.08,-0.31 32.17,-0.62 48.26,-0.94zm-289.48 152.33c-5.63,14.24 -6.68,23.42 -5.82,51.11 1.31,42.47 10.46,63.87 38.13,89.16 31.92,29.17 78.06,38.02 124.11,23.79 42.3,-13.07 77.44,-56.81 82.04,-102.14 3.75,-36.94 -9.28,-75.39 -34.06,-100.47 -60.82,-61.56 -173.2,-40.36 -204.41,38.56z"/>
  <path id="_22_32" class="fil1" d="M4919.35 5710.09c4.43,16.88 6.51,36.57 6.64,62.6 0.06,12.66 0.13,25.31 0.19,37.97 -55.12,0 -110.25,0 -165.37,0 -187.39,0 -172.12,-2.78 -157.43,28.69 19.04,40.76 55.28,65.65 106.22,72.93 41.34,5.91 91.83,-8.88 121.36,-35.55 4.54,-4.11 9.09,-8.21 13.63,-12.32 9.07,9.32 18.15,18.65 27.22,27.97 14.97,15.39 27.26,30.49 27.3,33.56 0.1,7.44 -26.74,29.56 -53.93,44.43 -23.99,13.13 -63.54,24.32 -97.98,27.73 -27.24,2.7 -81.69,-3.51 -106.91,-12.19 -67.61,-23.26 -120.89,-78.44 -141.51,-146.57 -8.46,-27.94 -8.42,-96.37 0.07,-124.67 23.46,-78.21 86.98,-137.93 161.84,-152.12 82.57,-15.67 153.28,3.46 204.85,55.43 28.8,29.02 44.17,55.33 53.81,92.11zm-320.74 9.13c-3.23,10.38 -5.23,19.54 -4.44,20.37 2.29,2.4 234.37,2.54 235.85,0.15 1.98,-3.19 -6.81,-30.74 -14.81,-46.4 -16.34,-32.04 -59.18,-54.81 -103.09,-54.81 -55.32,0 -97.78,30.19 -113.5,80.69z"/>
  <path id="_22_33" class="fil1" d="M5826.13 5564.29c36.72,0 48.42,1.02 48.42,4.26 0,2.34 -6.95,20.19 -15.44,39.65 -8.5,19.47 -18.21,42.24 -21.59,50.59 -3.38,8.35 -11.78,28.09 -18.67,43.87 -12.39,28.39 -66.86,158.76 -108.57,259.87 -36.88,89.41 -52.65,118.96 -76.29,142.93 -35.91,36.41 -81.22,51.21 -133.51,43.59 -29.31,-4.27 -64.63,-17.12 -79.32,-28.86 -3.19,-2.55 -6.39,-5.1 -9.58,-7.65 6.39,-12.06 12.77,-24.13 19.16,-36.19 10.54,-19.91 19.57,-36.19 20.07,-36.19 0.5,0 11.12,5.31 23.58,11.81 50.82,26.49 95.68,9.44 116.19,-44.14 2.43,-6.34 4.85,-12.68 7.28,-19.03 -28.21,-65.41 -56.41,-130.82 -84.62,-196.23 -46.54,-107.93 -87.54,-203.44 -91.1,-212.26 -2.16,-5.34 -4.32,-10.69 -6.48,-16.03 17.27,0 34.54,0 51.81,0 17.27,0 34.54,0 51.81,0 6.49,15.46 12.98,30.94 19.46,46.41 76.63,182.74 109.43,259.03 111.35,259.03 1.59,0 19,-41.21 75.95,-179.72 17.23,-41.91 34.46,-83.81 51.69,-125.72 16.14,0 32.28,0 48.42,0z"/>
  <path id="_22_34" class="fil1" d="M7249.75 5688.19c3.47,17.36 4.44,56.79 4.03,162.97 -0.18,46.69 -0.37,93.37 -0.55,140.06 -16.31,0 -32.63,0 -48.94,0 -16.31,0 -32.62,0 -48.93,0 -0.13,-44.44 -0.26,-88.87 -0.39,-133.31 -0.37,-129.96 -0.58,-133.82 -8.06,-153.56 -15.42,-40.71 -49.3,-61.35 -95.78,-58.34 -44.59,2.89 -75.36,23.53 -94.5,63.4 -3.51,7.31 -7.02,14.63 -10.53,21.94 -0.57,42.73 -1.13,85.47 -1.69,128.2 -0.56,42.73 -1.13,85.46 -1.69,128.2 -3.94,0.61 -7.87,1.22 -11.81,1.83 -6.5,1 -16.75,1.6 -22.78,1.32 -6.04,-0.28 -23.12,-0.7 -37.97,-0.93 -9,-0.14 -18,-0.28 -27,-0.42 0,-70.87 0,-141.75 0,-212.63 0,-70.87 0,-141.75 0,-212.62 16.31,0 32.63,0 48.94,0 16.31,0 32.63,0 48.94,0 0,8.58 0,17.16 0,25.74 0,8.58 0,17.17 0,25.74 4.78,-4.39 9.56,-8.78 14.35,-13.17 32.3,-29.66 62.91,-41.49 113.91,-44.02 61.07,-3.03 104.29,12.36 140.07,49.87 21.53,22.57 33.81,46.82 40.38,79.74z"/>
  <path id="_22_35" class="fil1 str0" d="M5389.05 5639.89c5.3,7.24 9.63,14.26 9.63,15.59 0,2.45 -71.29,43.81 -75.52,43.81 -1.25,0 -10.97,-8.83 -21.59,-19.62 -28.77,-29.21 -45.28,-36.07 -86.82,-36.07 -29.32,0 -36.19,1.15 -52.31,8.76 -50.93,24.05 -80.46,84.45 -71.03,145.34 11.41,73.69 63.6,117.96 133.78,113.45 38.07,-2.44 72.66,-23.35 91.26,-55.15 3.77,-6.45 3.95,-6.45 15.19,0.07 6.26,3.63 23.48,13.01 38.29,20.85 14.81,7.84 27.44,15.83 28.09,17.75 3.59,10.76 -38.89,56.07 -70.62,75.33 -65.74,39.9 -174.14,36.44 -243.02,-7.76 -39.95,-25.63 -77.46,-79.69 -88.8,-127.97 -7.73,-32.91 -6.87,-89.74 1.85,-122.06 18.49,-68.5 73.98,-124.06 146.46,-146.64 16.19,-5.04 30.74,-6.28 72.56,-6.2 48.18,0.09 54.26,0.81 77.04,9.13 13.6,4.97 30.31,12.44 37.13,16.62 16.16,9.88 46.27,38.09 58.46,54.75z"/>
  <path id="_22_36" class="fil1" d="M6296.22 5631.93c7.54,9.54 13.7,19.35 13.7,21.81 0,2.46 -17,14.24 -37.78,26.18 -12.6,7.24 -25.19,14.47 -37.78,21.7 -6.05,-6.53 -12.1,-13.07 -18.15,-19.6 -23.83,-25.74 -47.26,-37.27 -80.01,-39.37 -32.22,-2.07 -54.83,3.63 -79.33,20 -20.33,13.58 -39.12,37.63 -47.06,60.26 -12.41,35.35 -10.5,83.98 4.59,116.93 25.41,55.49 91.34,84.51 152.08,66.94 17.53,-5.07 23.52,-9.2 44.55,-30.77 8.1,-8.31 16.2,-16.61 24.3,-24.92 12.43,6.84 24.86,13.69 37.29,20.53 20.51,11.29 37.3,22.44 37.3,24.77 0,6.53 -18.37,32.67 -32.7,46.53 -18.65,18.04 -49.45,35.47 -80.37,45.47 -22.78,7.37 -33.33,8.75 -67.5,8.84 -70.83,0.19 -121.76,-19.62 -167.13,-65 -30.22,-30.22 -47.41,-60.78 -57.22,-101.7 -28.19,-117.57 35.96,-229.38 151.79,-264.61 27.05,-8.22 93.49,-10.33 123.19,-3.92 45.48,9.84 89.81,36.51 116.24,69.94z"/>
  <path id="_22_37" class="fil1" d="M6493.02 5398.06c1.39,0.69 2.53,133.97 2.53,296.18 0,98.31 0,196.62 0,294.93 -14.34,0.34 -28.69,0.69 -43.03,1.03 -23.67,0.57 -46.46,0.55 -50.64,-0.05 -2.54,-0.36 -5.07,-0.72 -7.61,-1.08 0.28,-98.61 0.57,-197.22 0.86,-295.83 0.29,-98.61 0.57,-197.22 0.86,-295.83 15.75,-0.1 31.5,-0.2 47.25,-0.3 25.99,-0.17 48.39,0.26 49.78,0.96z"/>
  <path id="_22_38" class="fil1" d="M4418.84 5558.7c9.36,-0.72 18.72,-1.44 28.08,-2.16 0,15.78 0,31.56 0,47.35 0,15.78 0,31.56 0,47.34 -10.41,0.49 -20.81,0.97 -31.22,1.46 -46.5,2.17 -78.23,19.77 -98.76,54.8 -16.16,27.57 -18.42,48.38 -18.47,169.83 -0.02,37.4 -0.03,74.81 -0.05,112.22 -3.65,0.12 -7.31,0.24 -10.97,0.36 -15.99,0.52 -34.56,0.54 -64.12,0.06 -8.72,-0.14 -17.44,-0.28 -26.16,-0.43 0,-70.91 0,-141.81 0,-212.72 0,-70.91 0,-141.81 0,-212.72 16.03,0.31 32.06,0.63 48.09,0.94 16.03,0.31 32.06,0.62 48.09,0.93 -0.11,9.28 -0.21,18.56 -0.32,27.85 -0.18,15.31 0.59,27.84 1.69,27.84 1.1,0 6.29,-5.38 11.54,-11.94 22.14,-27.74 65.51,-47.4 112.58,-51.02z"/>
  <path id="_22_39" class="fil1" d="M6671.05 5564.29c16.89,0 33.78,0 50.68,0 -0.29,71.15 -0.58,142.31 -0.87,213.46 -0.29,71.16 -0.58,142.31 -0.87,213.47 -16.31,0 -32.63,0 -48.94,0 -16.31,0 -32.63,0 -48.94,0 -0.29,-71.15 -0.58,-142.31 -0.87,-213.47 -0.29,-71.15 -0.58,-142.31 -0.87,-213.46 16.89,0 33.78,0 50.67,0z"/>
  <path id="_26" class="fil2" d="M4598.61 5719.23c15.72,-50.5 58.19,-80.69 113.5,-80.69 43.91,0 86.75,22.77 103.09,54.81 7.99,15.66 16.78,43.2 14.81,46.4 -1.48,2.39 -233.56,2.25 -235.85,-0.15 -0.79,-0.82 1.21,-9.99 4.44,-20.37z"/>
  <path id="_27_40" class="fil1" d="M7695.05 4221.25c-143.67,-63.56 183.12,80.99 0,0z"/>
  <path id="_22_41" class="fil1" d="M6730.47 5414.04c12.38,28.42 -1.18,63.07 -30.73,78.52 -13.01,6.8 -44.73,6.58 -58.23,-0.4 -15.69,-8.11 -30.67,-28.33 -33.13,-44.69 -6.56,-43.73 35.98,-80.54 79.54,-68.81 16.14,4.35 36.35,21.15 42.55,35.37z"/>
 </g>
</svg>
